<svg width="100" height="100" viewBox="0 0 100 100" fill="none" xmlns="http://www.w3.org/2000/svg">
<mask id="mask0_33_4" style="mask-type:luminance" maskUnits="userSpaceOnUse" x="5" y="5" width="90" height="90">
<path d="M50 91.6667C55.4727 91.6734 60.8929 90.5987 65.949 88.5043C71.0051 86.41 75.5976 83.3372 79.4625 79.4625C83.3372 75.5976 86.41 71.0051 88.5043 65.949C90.5987 60.8929 91.6734 55.4727 91.6667 50C91.6734 44.5273 90.5987 39.1071 88.5043 34.051C86.41 28.9949 83.3372 24.4024 79.4625 20.5375C75.5976 16.6628 71.0051 13.59 65.949 11.4957C60.8929 9.40127 55.4727 8.32658 50 8.33333C44.5273 8.32658 39.1071 9.40127 34.051 11.4957C28.9949 13.59 24.4024 16.6628 20.5375 20.5375C16.6628 24.4024 13.59 28.9949 11.4957 34.051C9.40127 39.1071 8.32658 44.5273 8.33333 50C8.32658 55.4727 9.40127 60.8929 11.4957 65.949C13.59 71.0051 16.6628 75.5976 20.5375 79.4625C24.4024 83.3372 28.9949 86.41 34.051 88.5043C39.1071 90.5987 44.5273 91.6734 50 91.6667Z" fill="white" stroke="white" stroke-width="5" stroke-linejoin="round"/>
<path d="M33.3333 50L45.8333 62.5L70.8333 37.5" stroke="black" stroke-width="5" stroke-linecap="round" stroke-linejoin="round"/>
</mask>
<g mask="url(#mask0_33_4)">
<path d="M0 0H100V100H0V0Z" fill="#495E57"/>
</g>
</svg>
